<?xml version="1.0" standalone="no"?>
<!DOCTYPE svg PUBLIC "-//W3C//DTD SVG 20010904//EN"
 "http://www.w3.org/TR/2001/REC-SVG-20010904/DTD/svg10.dtd">
<svg version="1.0" xmlns="http://www.w3.org/2000/svg"
 width="983.000000pt" height="985.000000pt" viewBox="0 0 983.000000 985.000000"
 preserveAspectRatio="xMidYMid meet">

<g transform="translate(0.000000,985.000000) scale(0.100000,-0.100000)"
fill="#000000" stroke="none">
<path d="M8582 9687 c-64 -43 -72 -70 -72 -238 0 -160 7 -190 55 -231 31 -26
89 -37 133 -26 44 11 71 32 95 75 14 26 17 57 17 183 0 136 -2 156 -21 186
-44 72 -140 96 -207 51z"/>
<path d="M1122 9648 c-60 -37 -72 -78 -72 -244 0 -155 7 -185 55 -226 31 -26
89 -37 132 -26 45 11 72 32 96 75 14 26 17 57 17 181 0 135 -2 155 -21 186
-43 73 -137 97 -207 54z"/>
<path d="M8126 8800 c-46 -30 -66 -68 -66 -130 0 -63 20 -101 69 -131 28 -17
52 -19 221 -19 l190 0 0 -190 c0 -169 2 -193 19 -221 30 -48 68 -69 129 -69
63 0 98 18 130 66 21 33 22 41 22 294 0 289 2 277 -70 350 -73 72 -61 70 -352
69 -237 0 -266 -2 -292 -19z"/>
<path d="M4616 8790 c-45 -28 -68 -73 -68 -129 0 -59 24 -104 70 -131 31 -18
53 -20 292 -20 239 0 261 2 292 20 95 56 95 204 0 260 -31 19 -52 20 -295 19
-237 0 -265 -2 -291 -19z"/>
<path d="M5798 8803 c-10 -2 -18 -9 -18 -14 0 -5 -6 -9 -12 -9 -26 0 -63 -71
-63 -120 0 -48 37 -120 62 -120 6 0 13 -6 15 -12 4 -10 70 -14 275 -16 262 -3
271 -2 307 19 42 24 76 83 76 129 0 46 -34 105 -75 129 -34 20 -48 21 -293 20
-141 -1 -265 -3 -274 -6z"/>
<path d="M6944 8791 c-81 -49 -104 -145 -51 -214 50 -66 57 -67 344 -67 274 0
273 0 322 50 72 71 41 204 -56 241 -13 5 -138 9 -276 9 -230 0 -255 -2 -283
-19z"/>
<path d="M9275 8782 c-63 -36 -91 -103 -73 -169 12 -43 38 -82 55 -83 6 0 13
-6 15 -12 4 -10 49 -14 172 -16 155 -3 169 -2 201 18 99 61 99 200 -1 259 -31
19 -51 21 -187 21 -125 0 -157 -4 -182 -18z"/>
<path d="M1159 8772 c-33 -22 -91 -80 -112 -114 -15 -24 -16 -54 -10 -290 5
-225 9 -267 24 -292 28 -46 67 -66 129 -66 63 0 101 20 131 70 19 30 20 48 17
221 l-3 189 187 0 c167 0 191 2 219 19 48 30 69 68 69 129 0 63 -18 98 -66
130 -33 21 -41 22 -296 21 -228 0 -266 -3 -289 -17z"/>
<path d="M2310 8772 c-52 -35 -80 -82 -80 -133 0 -46 39 -108 82 -130 34 -17
61 -19 287 -19 137 0 260 4 273 9 61 23 106 102 94 164 -8 37 -46 97 -63 97
-6 0 -13 6 -15 13 -4 9 -70 13 -279 14 -245 2 -277 1 -299 -15z"/>
<path d="M3466 8770 c-45 -28 -68 -73 -68 -129 0 -59 24 -104 70 -131 31 -18
53 -20 292 -20 239 0 261 2 292 20 95 56 95 204 0 260 -31 19 -52 20 -295 19
-237 0 -265 -2 -291 -19z"/>
<path d="M213 8739 c-99 -64 -95 -207 8 -259 33 -17 59 -20 192 -20 125 0 157
3 167 15 7 8 18 15 24 15 16 1 42 41 54 83 16 56 -19 156 -55 157 -6 0 -13 6
-15 13 -4 9 -49 13 -174 15 -157 2 -171 1 -201 -19z"/>
<path d="M1106 7588 c-34 -12 -74 -52 -87 -86 -5 -13 -9 -136 -9 -273 0 -278
2 -286 67 -336 70 -54 175 -27 218 57 12 24 15 76 15 279 0 137 -4 260 -9 273
-14 35 -53 73 -90 86 -40 14 -66 14 -105 0z"/>
<path d="M8606 7588 c-34 -12 -74 -52 -87 -86 -5 -13 -9 -136 -9 -273 0 -278
2 -286 67 -336 70 -54 175 -27 218 57 12 24 15 77 15 287 0 229 -2 261 -18
284 -26 40 -44 54 -81 67 -40 14 -66 14 -105 0z"/>
<path d="M1095 6423 c-34 -18 -44 -28 -68 -66 -16 -25 -18 -53 -15 -299 2
-206 6 -272 16 -276 6 -2 12 -8 12 -13 0 -18 40 -48 79 -60 32 -10 50 -10 82
0 39 12 79 42 79 60 0 5 6 11 13 13 9 4 13 70 15 276 3 285 3 290 -43 338 -40
42 -119 55 -170 27z"/>
<path d="M8615 6403 c-34 -18 -44 -28 -68 -66 -16 -25 -18 -53 -15 -299 2
-206 6 -272 16 -276 6 -2 12 -8 12 -13 0 -18 40 -48 79 -60 32 -10 50 -10 82
0 39 12 79 42 79 60 0 5 6 11 13 13 9 4 13 69 15 271 3 233 1 270 -14 299 -21
40 -32 51 -71 72 -40 20 -89 20 -128 -1z"/>
<path d="M2936 5637 c3 -10 9 -15 12 -12 3 3 0 11 -7 18 -10 9 -11 8 -5 -6z"/>
<path d="M1118 5271 c-39 -13 -68 -35 -89 -70 -17 -29 -19 -54 -19 -291 0
-239 2 -261 20 -292 27 -46 72 -70 130 -70 49 0 110 26 110 48 0 6 9 19 20 29
19 17 20 31 20 281 0 243 -1 265 -20 296 -33 56 -111 87 -172 69z"/>
<path d="M8644 5250 c-41 -9 -72 -32 -95 -69 -17 -29 -19 -54 -19 -291 0 -239
2 -261 20 -292 27 -46 72 -70 130 -70 58 0 103 24 130 70 18 31 20 53 20 292
0 239 -2 261 -20 292 -32 55 -100 83 -166 68z"/>
<path d="M1110 4107 c-43 -21 -70 -41 -70 -54 0 -6 -6 -13 -12 -15 -10 -4 -14
-70 -16 -275 -3 -262 -2 -271 19 -307 24 -42 83 -76 129 -76 46 0 105 34 129
76 21 36 22 45 19 307 -2 205 -6 271 -15 275 -7 2 -13 8 -13 13 0 16 -36 46
-70 57 -40 15 -67 14 -100 -1z"/>
<path d="M8605 4105 c-84 -39 -95 -70 -95 -259 l0 -156 33 -62 c17 -34 38 -69
45 -76 6 -7 12 -19 12 -26 0 -7 8 -21 19 -30 15 -14 35 -16 102 -14 l84 3 3
245 c2 135 0 259 -3 275 -10 58 -86 116 -149 115 -12 -1 -34 -7 -51 -15z"/>
<path d="M6235 3841 c-81 -27 -134 -59 -191 -116 -30 -29 -54 -56 -54 -58 0
-5 -73 -135 -100 -177 -5 -8 -21 -37 -35 -65 -14 -27 -41 -77 -60 -110 -19
-33 -39 -70 -45 -83 -23 -52 -6 -51 -491 -54 -424 -3 -457 -5 -504 -23 -27
-11 -56 -26 -63 -32 -7 -7 -17 -13 -21 -13 -4 0 -19 -9 -32 -21 -13 -12 -31
-26 -39 -33 -43 -32 -95 -117 -120 -199 -19 -60 -20 -102 -20 -1218 0 -1111 1
-1158 19 -1210 31 -88 51 -121 115 -185 64 -64 97 -84 185 -115 53 -18 118
-19 2301 -19 2186 0 2249 1 2306 19 91 30 124 50 190 115 64 64 84 97 115 185
18 52 19 99 19 1211 0 1115 -1 1160 -19 1218 -22 68 -34 91 -76 147 -39 51
-62 75 -75 75 -5 0 -10 3 -10 8 0 9 -54 41 -100 60 -69 27 -131 31 -549 31
-421 1 -424 1 -442 23 -11 11 -19 25 -19 29 0 5 -19 41 -42 81 -24 40 -53 93
-66 118 -13 25 -32 61 -44 80 -11 19 -31 55 -45 80 -40 75 -46 83 -103 140
-55 56 -103 84 -194 114 -44 14 -139 16 -845 15 -717 -1 -801 -3 -846 -18z
m1643 -298 c2 -7 9 -13 16 -13 15 0 81 -102 132 -205 8 -16 30 -57 49 -90 19
-33 45 -80 57 -105 13 -25 29 -51 36 -58 6 -7 12 -19 12 -26 0 -24 94 -113
145 -137 l50 -24 475 -6 c261 -3 475 -6 476 -7 1 -1 12 -11 25 -23 13 -11 31
-32 41 -47 17 -25 18 -91 18 -1150 0 -1106 0 -1123 -20 -1162 -13 -26 -34 -47
-60 -60 -39 -20 -54 -20 -2245 -20 -2191 0 -2206 0 -2245 20 -26 13 -47 34
-60 60 -20 39 -20 56 -20 1159 0 1065 1 1122 18 1150 10 17 31 41 47 53 l29
23 471 5 470 5 57 28 c34 16 72 45 93 70 38 45 45 57 89 142 14 28 42 77 61
110 19 33 41 74 49 90 23 45 89 159 106 181 8 10 29 27 45 36 28 16 85 18 804
15 609 -2 775 -5 779 -14z"/>
<path d="M6995 2728 c-55 -4 -121 -15 -147 -23 -26 -8 -52 -15 -58 -15 -25 0
-230 -100 -230 -112 0 -5 -5 -8 -11 -8 -16 0 -86 -56 -154 -125 -230 -231
-331 -563 -265 -878 23 -107 26 -117 83 -235 46 -95 117 -194 191 -267 61 -61
130 -115 145 -115 6 0 11 -3 11 -8 0 -13 206 -112 235 -112 9 0 25 -5 35 -10
11 -6 70 -17 133 -25 150 -20 282 -4 432 53 63 23 185 86 185 94 0 5 5 8 11 8
33 0 190 151 261 252 39 55 89 151 126 241 26 61 52 223 52 317 0 96 -22 230
-53 321 -22 65 -90 190 -138 256 -70 94 -218 233 -248 233 -6 0 -11 3 -11 8 0
8 -122 71 -185 94 -130 49 -255 67 -400 56z m268 -327 c54 -19 156 -69 167
-82 3 -3 13 -10 22 -15 10 -5 38 -29 64 -54 248 -236 283 -609 83 -885 -38
-53 -117 -133 -147 -149 -9 -5 -19 -12 -22 -15 -10 -13 -127 -69 -180 -87 -78
-26 -282 -26 -360 0 -237 80 -403 259 -461 496 -62 253 44 535 261 697 63 47
199 105 275 117 68 10 240 -3 298 -23z"/>
<path d="M7388 2233 c7 -3 16 -2 19 1 4 3 -2 6 -13 5 -11 0 -14 -3 -6 -6z"/>
<path d="M8765 2381 c-76 -19 -105 -60 -105 -147 0 -67 23 -105 78 -131 53
-25 222 -25 274 0 108 52 117 202 16 261 -24 15 -55 20 -132 22 -56 2 -115 0
-131 -5z"/>
<path d="M5110 2371 c-79 -17 -110 -58 -110 -147 0 -67 23 -105 78 -131 53
-25 222 -25 274 0 108 52 117 202 17 261 -36 21 -193 32 -259 17z"/>
<path d="M8770 1781 c-79 -16 -110 -58 -110 -147 0 -67 23 -105 78 -131 53
-25 222 -25 274 0 108 51 119 198 20 259 -27 17 -54 21 -130 24 -54 1 -113 -1
-132 -5z"/>
<path d="M5110 1771 c-79 -17 -110 -58 -110 -147 0 -67 23 -105 78 -131 53
-25 222 -25 274 0 108 52 117 202 17 261 -36 21 -193 32 -259 17z"/>
<path d="M8775 1191 c-76 -19 -105 -60 -105 -147 0 -109 58 -149 215 -149 119
0 156 13 196 68 52 71 34 164 -40 209 -27 17 -53 22 -135 24 -56 2 -115 0
-131 -5z"/>
<path d="M5120 1181 c-79 -17 -110 -58 -110 -147 0 -109 58 -149 215 -149 119
0 156 13 196 68 52 71 34 164 -40 209 -27 17 -53 22 -130 24 -53 2 -112 0
-131 -5z"/>
<path d="M1105 2945 c-16 -9 -38 -24 -49 -33 -43 -40 -46 -59 -46 -329 0 -227
2 -262 17 -283 30 -42 51 -59 92 -71 47 -14 109 -1 140 30 51 51 51 49 51 324
0 286 -2 294 -65 342 -43 34 -100 41 -140 20z"/>
<path d="M1118 1743 c-14 -9 -36 -33 -47 -54 -20 -35 -21 -52 -21 -295 0 -286
-3 -271 70 -344 72 -72 61 -70 349 -70 239 0 263 2 292 19 49 30 69 68 69 131
0 63 -20 101 -69 131 -28 17 -52 19 -221 19 l-190 0 0 190 c0 209 -5 231 -67
271 -36 24 -127 25 -165 2z"/>
<path d="M2309 1296 c-69 -36 -101 -107 -80 -177 13 -43 50 -85 89 -100 13 -5
136 -9 273 -9 278 0 286 2 336 67 54 70 27 175 -57 218 -41 21 -521 22 -561 1z"/>
<path d="M3452 1288 c-38 -24 -72 -84 -72 -128 0 -46 34 -105 76 -129 36 -21
45 -22 307 -19 205 2 271 6 275 16 2 6 9 12 15 12 17 0 55 60 63 97 10 52 -31
143 -65 143 -5 0 -11 6 -13 13 -4 9 -70 12 -279 14 -261 2 -276 1 -307 -19z"/>
<path d="M242 1277 c-97 -66 -95 -198 4 -256 31 -19 52 -21 186 -21 159 0 189
7 230 55 26 31 38 90 26 132 -12 43 -38 82 -55 83 -6 0 -13 6 -15 13 -4 9 -49
13 -174 14 -160 2 -171 1 -202 -20z"/>
<path d="M1190 606 c-45 -14 -80 -38 -80 -53 0 -6 -6 -13 -12 -15 -10 -4 -14
-49 -16 -172 -3 -155 -2 -169 18 -201 61 -99 200 -99 259 1 19 31 21 52 21
186 0 155 -8 189 -50 226 -37 31 -95 43 -140 28z"/>
</g>
</svg>
